# xmcd
#
# Track frame offsets: 
#        150
#        23252
#        40902
#        64520
#        83815
#        102532
#        127490
#        149022
#        170730
#        195572
#
# Disc length: 2876 seconds
#
# Revision: 10
# Processed by: cddbd v1.5.2PL0 Copyright (c) Steve Scherf et al.
# Submitted via: ExactAudioCopy v1.0b3
#
DISCID=8e0b3a0a
DTITLE=Des'ree - Mind Adventures
DYEAR=1992
DGENRE=R&B
TTITLE0=Average Man
TTITLE1=Feel So High
TTITLE2=Sun Of '79
TTITLE3=Why Should I Love You?
TTITLE4=Stand On My Own Ground
TTITLE5=Competitive World
TTITLE6=Mind Adventures
TTITLE7=Laughter
TTITLE8=Save Me
TTITLE9=Momma Please Don't Cry
EXTD=YEAR: 1992 ID3G: 17
EXTT0=
EXTT1=
EXTT2=
EXTT3=
EXTT4=
EXTT5=
EXTT6=
EXTT7=
EXTT8=
EXTT9=
PLAYORDER=
